<?xml version="1.0" encoding="UTF-8"?>
<!DOCTYPE svg PUBLIC "-//W3C//DTD SVG 1.1//EN" "http://www.w3.org/Graphics/SVG/1.1/DTD/svg11.dtd">
<svg xmlns="http://www.w3.org/2000/svg" version="1.1" width="180px" height="180px" style="shape-rendering:geometricPrecision; text-rendering:geometricPrecision; image-rendering:optimizeQuality; fill-rule:evenodd; clip-rule:evenodd" xmlns:xlink="http://www.w3.org/1999/xlink">
<g><path style="opacity:0.997" fill="#fffefe" d="M 9.5,-0.5 C 62.8333,-0.5 116.167,-0.5 169.5,-0.5C 173.167,2.5 176.5,5.83333 179.5,9.5C 179.5,62.8333 179.5,116.167 179.5,169.5C 176.5,173.167 173.167,176.5 169.5,179.5C 116.167,179.5 62.8333,179.5 9.5,179.5C 5.83333,176.5 2.5,173.167 -0.5,169.5C -0.5,116.167 -0.5,62.8333 -0.5,9.5C 2.5,5.83333 5.83333,2.5 9.5,-0.5 Z"/></g>
<g><path style="opacity:1" fill="#ff0b06" d="M 62.5,51.5 C 69.8188,50.3061 73.9854,53.3061 75,60.5C 75.5512,65.5445 75.2179,70.5445 74,75.5C 71.2024,84.6901 69.0358,94.0234 67.5,103.5C 68.8431,111.76 73.1765,113.594 80.5,109C 87.1742,100.659 91.3409,91.1592 93,80.5C 93.3333,72.8333 93.6667,65.1667 94,57.5C 98.9288,51.8823 105.095,50.0489 112.5,52C 113.333,52.8333 114.167,53.6667 115,54.5C 115.454,68.0767 113.787,81.4101 110,94.5C 109.501,99.4889 109.334,104.489 109.5,109.5C 110.873,109.657 112.207,109.49 113.5,109C 119.802,103.699 125.802,98.0325 131.5,92C 132.784,91.3162 133.951,91.4829 135,92.5C 135.946,103.111 132.113,111.611 123.5,118C 117.544,121.765 111.211,124.765 104.5,127C 95.4593,127.971 90.626,123.805 90,114.5C 82.8804,125.878 72.7138,130.045 59.5,127C 49.1683,125.176 43.8349,119.009 43.5,108.5C 46.2491,100.33 48.4158,91.9965 50,83.5C 50.5634,74.1196 51.5634,64.7862 53,55.5C 56.0047,53.4883 59.1714,52.155 62.5,51.5 Z"/></g>
</svg>
